<svg width="683" height="106" viewBox="0 0 683 106" fill="none" xmlns="http://www.w3.org/2000/svg">
<path d="M1.19656 21.4385C7.35359 22.6237 13.1378 24.1794 18.8238 26.3013C25.3495 28.7368 31.3385 32.0397 37.0859 35.8477C39.2939 37.3139 41.3504 39.0407 43.2962 40.8449C44.3654 41.8346 44.5784 43.2396 43.6731 44.6284C42.8005 45.9683 41.4855 46.7014 39.9494 46.2942C39.0973 46.0702 38.2616 45.5285 37.5816 44.938C33.2967 41.2155 28.5365 38.1854 23.4036 35.8273C19.3071 33.9458 15.014 32.4959 10.7987 30.8709C9.77052 30.4758 8.70952 30.1582 7.4478 29.7346C7.29623 30.2355 7.05044 30.708 7.02996 31.1926C6.77598 37.2894 7.27985 43.3455 8.34084 49.3365C8.93893 52.7168 9.74593 56.0971 10.8479 59.3471C13.1092 66.0019 16.5215 72.0336 21.2939 77.2914C26.8938 83.4616 33.6571 88.0555 41.08 91.6721C46.5529 94.3397 52.3003 96.3964 58.277 97.716C59.1783 97.9155 60.0754 98.1192 60.9766 98.3106C62.0376 98.5346 63.3362 100.147 63.4755 101.426C63.5984 102.562 62.607 104.106 61.6362 104.692C59.9034 105.739 58.1951 104.925 56.618 104.55C53.0253 103.703 49.404 102.762 46.004 101.353C41.6617 99.5568 37.5242 97.268 33.3008 95.1909C26.9307 92.0549 21.6053 87.5424 16.7345 82.5004C12.5971 78.22 9.26255 73.3124 6.94394 67.8346C5.22751 63.7823 3.65446 59.62 2.5566 55.3722C1.4997 51.271 1.04089 47.0069 0.491965 42.7916C-0.269982 36.931 -0.0692541 31.0501 0.565702 25.1854C0.696789 23.9677 0.963061 22.7662 1.18837 21.4344L1.19656 21.4385Z" fill="#559E9C"/>
<path d="M146.803 21.4385C140.646 22.6237 134.862 24.1794 129.176 26.3013C122.651 28.7368 116.661 32.0397 110.914 35.8477C108.706 37.3139 106.65 39.0407 104.704 40.8449C103.635 41.8346 103.422 43.2396 104.327 44.6284C105.199 45.9683 106.514 46.7014 108.051 46.2942C108.903 46.0702 109.738 45.5285 110.418 44.938C114.703 41.2155 119.463 38.1854 124.596 35.8273C128.693 33.9458 132.986 32.4959 137.201 30.8709C138.229 30.4758 139.29 30.1582 140.552 29.7346C140.704 30.2355 140.95 30.708 140.97 31.1926C141.224 37.2894 140.72 43.3455 139.659 49.3365C139.061 52.7168 138.254 56.0971 137.152 59.3471C134.891 66.0019 131.478 72.0336 126.706 77.2914C121.106 83.4616 114.343 88.0555 106.92 91.6721C101.447 94.3397 95.6997 96.3964 89.723 97.716C88.8217 97.9155 87.9246 98.1192 87.0234 98.3106C85.9624 98.5346 84.6638 100.147 84.5245 101.426C84.4016 102.562 85.393 104.106 86.3638 104.692C88.0966 105.739 89.8049 104.925 91.382 104.55C94.9747 103.703 98.596 102.762 101.996 101.353C106.338 99.5568 110.476 97.268 114.699 95.1909C121.069 92.0549 126.395 87.5424 131.265 82.5004C135.403 78.22 138.737 73.3124 141.056 67.8346C142.772 63.7823 144.346 59.62 145.443 55.3722C146.5 51.271 146.959 47.0069 147.508 42.7916C148.27 36.931 148.069 31.0501 147.434 25.1854C147.303 23.9677 147.037 22.7662 146.812 21.4344L146.803 21.4385Z" fill="#559E9C"/>
<path d="M74.1401 104.17C72.3991 102.346 70.8998 100.912 69.5685 99.3442C65.3614 94.3918 61.6499 89.077 58.5776 83.3589C55.9558 78.4757 53.6577 73.4215 52.3468 68.0089C51.5849 64.8567 50.8393 61.6637 50.5075 58.4462C50.106 54.5405 49.8971 50.5778 50.0814 46.6639C50.2166 43.7764 51.0032 40.897 51.716 38.0706C52.5148 34.9183 53.3095 31.7253 54.5671 28.74C56.1525 24.9728 58.1024 21.3399 60.0728 17.7478C63.4073 11.6592 67.5776 6.15287 72.3705 1.11902C73.8124 -0.396017 73.796 -0.347144 75.238 1.11088C82.1037 8.05075 87.3472 16.1188 91.4601 24.8791C93.2421 28.6749 94.3276 32.7964 95.6467 36.7999C97.8301 43.4221 98.0268 50.2764 97.5311 57.1226C97.3017 60.279 96.6135 63.4597 95.6959 66.498C94.344 70.9779 92.8816 75.4742 90.9398 79.722C89.1374 83.6644 86.8761 87.456 84.3855 91.0196C81.2844 95.4589 77.745 99.5927 74.1442 104.174L74.1401 104.17ZM74.2712 10.0504L73.6199 9.77757C73.4069 10.1645 73.2348 10.588 72.9685 10.9383C68.9171 16.1921 65.3409 21.7024 62.5839 27.7748C60.2162 32.9919 58.4178 38.3109 57.4715 43.9638C56.6235 49.0424 56.5498 54.1048 57.492 59.1305C58.1966 62.8814 59.1224 66.6201 60.294 70.253C61.2075 73.0876 62.4815 75.8448 63.9112 78.4676C66.0004 82.2878 68.3149 85.9899 70.6499 89.6716C71.5471 91.0889 72.7678 92.3025 74.0131 93.8217C75.8811 91.1092 77.5812 88.7674 79.1501 86.3442C82.8452 80.6383 85.8725 74.6433 88.0395 68.1515C89.6413 63.3579 90.6449 58.4829 90.9235 53.5305C91.1242 50.0076 90.5794 46.3748 89.8625 42.8926C89.0063 38.7222 87.933 34.5355 86.3764 30.5809C84.8443 26.6915 82.7346 22.9975 80.5962 19.3851C78.6872 16.1595 76.3932 13.162 74.2671 10.0627L74.2712 10.0504Z" fill="#559E9C"/>
<path d="M220.118 26.8906C218.478 25.1094 216.728 23.7969 214.868 22.9531C213.009 22.0938 210.954 21.6641 208.704 21.6641C206.892 21.6641 205.118 22.0312 203.384 22.7656C201.665 23.5 200.173 24.5234 198.908 25.8359C197.595 27.1953 196.611 28.7188 195.954 30.4062C195.298 32.0781 194.97 33.9297 194.97 35.9609C194.97 37.5547 195.165 39.0234 195.556 40.3672C195.947 41.7109 196.533 42.9453 197.314 44.0703C198.689 46.0234 200.376 47.5312 202.376 48.5938C204.392 49.6406 206.564 50.1641 208.892 50.1641C211.079 50.1641 213.111 49.7109 214.986 48.8047C216.861 47.8984 218.572 46.5469 220.118 44.75V50.1641C218.415 51.3984 216.579 52.3359 214.611 52.9766C212.658 53.6016 210.634 53.9141 208.54 53.9141C206.728 53.9141 204.962 53.6406 203.243 53.0938C201.525 52.5625 199.915 51.7812 198.415 50.75C195.915 49.0156 194.001 46.8828 192.673 44.3516C191.361 41.8203 190.704 39.0391 190.704 36.0078C190.704 33.3672 191.142 30.9688 192.017 28.8125C192.908 26.6406 194.259 24.6719 196.072 22.9062C197.822 21.2188 199.759 19.9609 201.884 19.1328C204.009 18.2891 206.329 17.8672 208.845 17.8672C210.829 17.8672 212.751 18.1719 214.611 18.7812C216.47 19.375 218.306 20.3047 220.118 21.5703V26.8906ZM246.02 54.3359L231.512 18.6875H235.942L246.02 44.9375L256.051 18.6875H260.457L246.02 54.3359ZM292.054 35.2812H306.21V36.4297C306.21 41.8359 304.679 46.1016 301.616 49.2266C298.554 52.3516 294.374 53.9141 289.077 53.9141C287.468 53.9141 285.929 53.7422 284.46 53.3984C283.007 53.0547 281.663 52.5547 280.429 51.8984C277.616 50.3516 275.444 48.2188 273.913 45.5C272.382 42.7656 271.616 39.6641 271.616 36.1953C271.616 33.3359 272.069 30.7578 272.976 28.4609C273.897 26.1484 275.28 24.1172 277.124 22.3672C278.671 20.8984 280.468 19.7891 282.515 19.0391C284.562 18.2891 286.827 17.9141 289.312 17.9141C292.608 17.9141 295.468 18.5156 297.89 19.7188C300.312 20.9062 302.319 22.7031 303.913 25.1094L300.491 27.8516C299.257 25.7734 297.718 24.2188 295.874 23.1875C294.03 22.1406 291.89 21.6172 289.452 21.6172C285.468 21.6172 282.233 22.9609 279.749 25.6484C277.265 28.3359 276.022 31.8516 276.022 36.1953C276.022 40.2891 277.28 43.6484 279.796 46.2734C282.327 48.8984 285.546 50.2109 289.452 50.2109C292.89 50.2109 295.749 49.1719 298.03 47.0938C300.327 45 301.601 42.2812 301.851 38.9375H292.054V35.2812ZM344.677 53V18.6875H362.77V22.4141H348.755V32.2578H362.77V36.0547H348.755V53H344.677ZM386.351 26.3516L380.89 38.9844H391.812L386.351 26.3516ZM386.351 17.3281L401.961 53H397.531L393.078 42.4766H379.672L375.218 53H370.789L386.351 17.3281ZM430.604 54.3359L419.94 29.6797L415.628 53H411.643L418.604 17.3281L430.604 45.7109L442.604 17.3281L449.565 53H445.581L441.221 29.6797L430.604 54.3359ZM464.005 53V18.6875H468.083V53H464.005ZM485.5 53V18.6875H489.578V49.1094H502.539V53H485.5ZM520.542 53V37.2969L508.917 18.6875H513.628L522.605 33.5703L531.534 18.6875H536.222L524.62 37.2969V53H520.542ZM572.86 53V18.6875H576.938V49.1094H589.899V53H572.86ZM614.723 26.3516L609.262 38.9844H620.183L614.723 26.3516ZM614.723 17.3281L630.332 53H625.902L621.449 42.4766H608.043L603.59 53H599.16L614.723 17.3281ZM637.694 18.6875H642.1L650.796 43.9297L659.866 17.3281L669.03 43.9297L677.772 18.6875H682.178L668.889 54.3359L659.913 27.8047L650.983 54.3359L637.694 18.6875Z" fill="black"/>
<path d="M219.807 101V86.7031H227.785V88.6758H222.131V92.2402H227.785V94.2812H222.131V101H219.807ZM251.351 93.8809C251.351 93.1582 251.217 92.4714 250.95 91.8203C250.69 91.1693 250.312 90.5898 249.818 90.082C249.336 89.5807 248.776 89.1966 248.138 88.9297C247.506 88.6562 246.839 88.5195 246.136 88.5195C245.433 88.5195 244.762 88.653 244.124 88.9199C243.493 89.1868 242.93 89.5742 242.435 90.082C241.94 90.5833 241.562 91.1595 241.302 91.8105C241.042 92.4616 240.911 93.1517 240.911 93.8809C240.911 94.6035 241.042 95.2871 241.302 95.9316C241.562 96.5762 241.94 97.1523 242.435 97.6602C242.93 98.168 243.493 98.5553 244.124 98.8223C244.756 99.0892 245.426 99.2227 246.136 99.2227C246.833 99.2227 247.493 99.0892 248.118 98.8223C248.75 98.5553 249.316 98.168 249.818 97.6602C250.312 97.1523 250.69 96.5762 250.95 95.9316C251.217 95.2806 251.351 94.597 251.351 93.8809ZM253.773 93.8809C253.773 94.8965 253.581 95.8568 253.196 96.7617C252.819 97.6667 252.265 98.474 251.536 99.1836C250.801 99.8932 249.971 100.437 249.046 100.814C248.122 101.192 247.152 101.381 246.136 101.381C245.107 101.381 244.124 101.192 243.187 100.814C242.256 100.43 241.432 99.8867 240.716 99.1836C239.987 98.474 239.433 97.6699 239.056 96.7715C238.678 95.873 238.489 94.9095 238.489 93.8809C238.489 92.8587 238.678 91.8952 239.056 90.9902C239.433 90.0853 239.987 89.2747 240.716 88.5586C241.445 87.849 242.272 87.3086 243.196 86.9375C244.121 86.5664 245.101 86.3809 246.136 86.3809C247.165 86.3809 248.138 86.5664 249.056 86.9375C249.98 87.3086 250.807 87.849 251.536 88.5586C252.265 89.2812 252.819 90.0983 253.196 91.0098C253.581 91.9147 253.773 92.8717 253.773 93.8809ZM267.563 92.7969H267.983C269.213 92.7969 270.03 92.6536 270.434 92.3672C270.838 92.0807 271.039 91.5729 271.039 90.8438C271.039 90.056 270.821 89.5026 270.385 89.1836C269.955 88.8581 269.155 88.6953 267.983 88.6953H267.563V92.7969ZM267.416 94.6035V101H265.239V86.7031H268.481C269.431 86.7031 270.167 86.765 270.688 86.8887C271.215 87.0124 271.664 87.2174 272.036 87.5039C272.478 87.849 272.82 88.2949 273.061 88.8418C273.302 89.3887 273.422 89.9876 273.422 90.6387C273.422 91.7845 273.146 92.6829 272.592 93.334C272.039 93.9785 271.222 94.3659 270.141 94.4961L275.063 101H272.436L267.68 94.6035H267.416ZM303.102 95.3848H307.087L305.622 92.123C305.537 91.9147 305.449 91.6771 305.358 91.4102C305.267 91.1367 305.176 90.834 305.085 90.502C305.007 90.8145 304.922 91.1074 304.831 91.3809C304.746 91.6478 304.658 91.8952 304.567 92.123L303.102 95.3848ZM309.528 101L307.907 97.3184H302.243L300.583 101H298.141L305.065 86.1367L311.979 101H309.528ZM339.238 92.7383H340.126C341.233 92.7383 342.014 92.5885 342.47 92.2891C342.932 91.9831 343.163 91.472 343.163 90.7559C343.163 89.9746 342.952 89.4277 342.529 89.1152C342.105 88.7962 341.305 88.6367 340.126 88.6367H339.238V92.7383ZM339.238 99.0566H340.038C340.852 99.0566 341.461 99.0241 341.864 98.959C342.268 98.8939 342.587 98.7799 342.821 98.6172C343.108 98.4284 343.329 98.1745 343.486 97.8555C343.642 97.5365 343.72 97.1849 343.72 96.8008C343.72 96.3451 343.626 95.9479 343.437 95.6094C343.248 95.2708 342.978 95.0072 342.626 94.8184C342.405 94.7077 342.151 94.6263 341.864 94.5742C341.585 94.5221 341.21 94.4961 340.741 94.4961H340.038H339.238V99.0566ZM336.962 101V86.7031H340.566C341.594 86.7031 342.353 86.7585 342.841 86.8691C343.336 86.9798 343.756 87.1621 344.101 87.416C344.543 87.7415 344.885 88.168 345.126 88.6953C345.374 89.2227 345.497 89.8053 345.497 90.4434C345.497 91.2051 345.321 91.8431 344.97 92.3574C344.618 92.8652 344.107 93.2201 343.437 93.4219C344.27 93.5521 344.924 93.9329 345.4 94.5645C345.881 95.1895 346.122 95.9805 346.122 96.9375C346.122 97.5169 346.021 98.0671 345.82 98.5879C345.618 99.1087 345.331 99.5514 344.96 99.916C344.57 100.313 344.085 100.593 343.505 100.756C342.926 100.919 341.952 101 340.585 101H336.962ZM357.286 101V86.7031H365.264V88.6758H359.61V92.2598H365.264V94.3008H359.61V98.9199H365.264V101H357.286ZM381.349 88.6758V101H379.025V88.6758H375.226V86.7031H385.129V88.6758H381.349ZM400.325 88.6758V101H398.001V88.6758H394.202V86.7031H404.104V88.6758H400.325ZM414.682 101V86.7031H422.66V88.6758H417.006V92.2598H422.66V94.3008H417.006V98.9199H422.66V101H414.682ZM436.45 92.7969H436.87C438.101 92.7969 438.918 92.6536 439.321 92.3672C439.725 92.0807 439.927 91.5729 439.927 90.8438C439.927 90.056 439.709 89.5026 439.273 89.1836C438.843 88.8581 438.042 88.6953 436.87 88.6953H436.45V92.7969ZM436.304 94.6035V101H434.126V86.7031H437.368C438.319 86.7031 439.055 86.765 439.575 86.8887C440.103 87.0124 440.552 87.2174 440.923 87.5039C441.366 87.849 441.708 88.2949 441.948 88.8418C442.189 89.3887 442.31 89.9876 442.31 90.6387C442.31 91.7845 442.033 92.6829 441.48 93.334C440.926 93.9785 440.109 94.3659 439.029 94.4961L443.95 101H441.323L436.568 94.6035H436.304ZM473.591 88.6758V101H471.267V88.6758H467.468V86.7031H477.371V88.6758H473.591ZM499.462 93.8809C499.462 93.1582 499.328 92.4714 499.061 91.8203C498.801 91.1693 498.423 90.5898 497.929 90.082C497.447 89.5807 496.887 89.1966 496.249 88.9297C495.617 88.6562 494.95 88.5195 494.247 88.5195C493.544 88.5195 492.873 88.653 492.235 88.9199C491.604 89.1868 491.041 89.5742 490.546 90.082C490.051 90.5833 489.673 91.1595 489.413 91.8105C489.152 92.4616 489.022 93.1517 489.022 93.8809C489.022 94.6035 489.152 95.2871 489.413 95.9316C489.673 96.5762 490.051 97.1523 490.546 97.6602C491.041 98.168 491.604 98.5553 492.235 98.8223C492.867 99.0892 493.537 99.2227 494.247 99.2227C494.944 99.2227 495.604 99.0892 496.229 98.8223C496.861 98.5553 497.427 98.168 497.929 97.6602C498.423 97.1523 498.801 96.5762 499.061 95.9316C499.328 95.2806 499.462 94.597 499.462 93.8809ZM501.884 93.8809C501.884 94.8965 501.692 95.8568 501.307 96.7617C500.93 97.6667 500.376 98.474 499.647 99.1836C498.912 99.8932 498.082 100.437 497.157 100.814C496.233 101.192 495.263 101.381 494.247 101.381C493.218 101.381 492.235 101.192 491.298 100.814C490.367 100.43 489.543 99.8867 488.827 99.1836C488.098 98.474 487.544 97.6699 487.167 96.7715C486.789 95.873 486.6 94.9095 486.6 93.8809C486.6 92.8587 486.789 91.8952 487.167 90.9902C487.544 90.0853 488.098 89.2747 488.827 88.5586C489.556 87.849 490.383 87.3086 491.307 86.9375C492.232 86.5664 493.212 86.3809 494.247 86.3809C495.276 86.3809 496.249 86.5664 497.167 86.9375C498.091 87.3086 498.918 87.849 499.647 88.5586C500.376 89.2812 500.93 90.0983 501.307 91.0098C501.692 91.9147 501.884 92.8717 501.884 93.8809ZM525.01 93.9395C524.984 93.8288 524.941 93.5228 524.883 93.0215C524.831 92.6048 524.785 92.2598 524.746 91.9863C524.688 92.3118 524.603 92.6374 524.492 92.9629C524.388 93.2884 524.255 93.6204 524.092 93.959L520.352 101.576L516.611 93.8027C516.455 93.4837 516.318 93.1745 516.201 92.875C516.09 92.5755 515.993 92.2793 515.908 91.9863C515.902 92.2858 515.876 92.6016 515.83 92.9336C515.791 93.2591 515.729 93.6009 515.645 93.959L514.111 101H511.973L515.352 86.0977L519.57 95.1211C519.635 95.2643 519.733 95.502 519.863 95.834C520 96.166 520.163 96.5762 520.352 97.0645C520.488 96.6543 520.703 96.1335 520.996 95.502C521.074 95.3327 521.133 95.2025 521.172 95.1113L525.293 86.0977L528.75 101H526.592L525.01 93.9395ZM551.652 93.8809C551.652 93.1582 551.518 92.4714 551.251 91.8203C550.991 91.1693 550.613 90.5898 550.118 90.082C549.637 89.5807 549.077 89.1966 548.439 88.9297C547.807 88.6562 547.14 88.5195 546.437 88.5195C545.734 88.5195 545.063 88.653 544.425 88.9199C543.793 89.1868 543.23 89.5742 542.736 90.082C542.241 90.5833 541.863 91.1595 541.603 91.8105C541.342 92.4616 541.212 93.1517 541.212 93.8809C541.212 94.6035 541.342 95.2871 541.603 95.9316C541.863 96.5762 542.241 97.1523 542.736 97.6602C543.23 98.168 543.793 98.5553 544.425 98.8223C545.056 99.0892 545.727 99.2227 546.437 99.2227C547.133 99.2227 547.794 99.0892 548.419 98.8223C549.051 98.5553 549.617 98.168 550.118 97.6602C550.613 97.1523 550.991 96.5762 551.251 95.9316C551.518 95.2806 551.652 94.597 551.652 93.8809ZM554.073 93.8809C554.073 94.8965 553.881 95.8568 553.497 96.7617C553.12 97.6667 552.566 98.474 551.837 99.1836C551.101 99.8932 550.271 100.437 549.347 100.814C548.422 101.192 547.452 101.381 546.437 101.381C545.408 101.381 544.425 101.192 543.487 100.814C542.556 100.43 541.733 99.8867 541.017 99.1836C540.288 98.474 539.734 97.6699 539.357 96.7715C538.979 95.873 538.79 94.9095 538.79 93.8809C538.79 92.8587 538.979 91.8952 539.357 90.9902C539.734 90.0853 540.288 89.2747 541.017 88.5586C541.746 87.849 542.573 87.3086 543.497 86.9375C544.422 86.5664 545.402 86.3809 546.437 86.3809C547.465 86.3809 548.439 86.5664 549.357 86.9375C550.281 87.3086 551.108 87.849 551.837 88.5586C552.566 89.2812 553.12 90.0983 553.497 91.0098C553.881 91.9147 554.073 92.8717 554.073 93.8809ZM567.864 92.7969H568.284C569.514 92.7969 570.331 92.6536 570.735 92.3672C571.138 92.0807 571.34 91.5729 571.34 90.8438C571.34 90.056 571.122 89.5026 570.686 89.1836C570.256 88.8581 569.455 88.6953 568.284 88.6953H567.864V92.7969ZM567.717 94.6035V101H565.539V86.7031H568.782C569.732 86.7031 570.468 86.765 570.989 86.8887C571.516 87.0124 571.965 87.2174 572.336 87.5039C572.779 87.849 573.121 88.2949 573.362 88.8418C573.603 89.3887 573.723 89.9876 573.723 90.6387C573.723 91.7845 573.446 92.6829 572.893 93.334C572.34 93.9785 571.523 94.3659 570.442 94.4961L575.364 101H572.737L567.981 94.6035H567.717ZM587.875 92.7969H588.295C589.525 92.7969 590.342 92.6536 590.746 92.3672C591.149 92.0807 591.351 91.5729 591.351 90.8438C591.351 90.056 591.133 89.5026 590.697 89.1836C590.267 88.8581 589.466 88.6953 588.295 88.6953H587.875V92.7969ZM587.728 94.6035V101H585.55V86.7031H588.793C589.743 86.7031 590.479 86.765 591 86.8887C591.527 87.0124 591.976 87.2174 592.347 87.5039C592.79 87.849 593.132 88.2949 593.373 88.8418C593.614 89.3887 593.734 89.9876 593.734 90.6387C593.734 91.7845 593.457 92.6829 592.904 93.334C592.351 93.9785 591.533 94.3659 590.453 94.4961L595.375 101H592.748L587.992 94.6035H587.728ZM617.798 93.8809C617.798 93.1582 617.664 92.4714 617.397 91.8203C617.137 91.1693 616.759 90.5898 616.264 90.082C615.783 89.5807 615.223 89.1966 614.585 88.9297C613.953 88.6562 613.286 88.5195 612.583 88.5195C611.88 88.5195 611.209 88.653 610.571 88.9199C609.94 89.1868 609.376 89.5742 608.882 90.082C608.387 90.5833 608.009 91.1595 607.749 91.8105C607.488 92.4616 607.358 93.1517 607.358 93.8809C607.358 94.6035 607.488 95.2871 607.749 95.9316C608.009 96.5762 608.387 97.1523 608.882 97.6602C609.376 98.168 609.94 98.5553 610.571 98.8223C611.203 99.0892 611.873 99.2227 612.583 99.2227C613.279 99.2227 613.94 99.0892 614.565 98.8223C615.197 98.5553 615.763 98.168 616.264 97.6602C616.759 97.1523 617.137 96.5762 617.397 95.9316C617.664 95.2806 617.798 94.597 617.798 93.8809ZM620.22 93.8809C620.22 94.8965 620.027 95.8568 619.643 96.7617C619.266 97.6667 618.712 98.474 617.983 99.1836C617.248 99.8932 616.417 100.437 615.493 100.814C614.569 101.192 613.598 101.381 612.583 101.381C611.554 101.381 610.571 101.192 609.634 100.814C608.703 100.43 607.879 99.8867 607.163 99.1836C606.434 98.474 605.88 97.6699 605.503 96.7715C605.125 95.873 604.936 94.9095 604.936 93.8809C604.936 92.8587 605.125 91.8952 605.503 90.9902C605.88 90.0853 606.434 89.2747 607.163 88.5586C607.892 87.849 608.719 87.3086 609.643 86.9375C610.568 86.5664 611.548 86.3809 612.583 86.3809C613.611 86.3809 614.585 86.5664 615.503 86.9375C616.427 87.3086 617.254 87.849 617.983 88.5586C618.712 89.2812 619.266 90.0983 619.643 91.0098C620.027 91.9147 620.22 92.8717 620.22 93.8809ZM629.986 86.7031H632.281L634.986 93.9199C635.162 94.3952 635.309 94.8118 635.426 95.1699C635.549 95.528 635.657 95.8633 635.748 96.1758C635.976 95.4206 636.214 94.6816 636.461 93.959C636.493 93.8678 636.516 93.806 636.529 93.7734L639.4 86.1367L642.428 93.9199C642.571 94.2975 642.704 94.6751 642.828 95.0527C642.958 95.4303 643.079 95.8112 643.189 96.1953C643.255 95.9023 643.342 95.5801 643.453 95.2285C643.564 94.877 643.707 94.4603 643.883 93.9785L646.568 86.7031H648.883L643.346 101.557L640.084 93.4023C639.941 93.0378 639.811 92.6895 639.693 92.3574C639.576 92.0189 639.472 91.6999 639.381 91.4004C639.27 91.7845 639.16 92.1458 639.049 92.4844C638.938 92.8164 638.824 93.1354 638.707 93.4414L635.504 101.557L629.986 86.7031Z" fill="#559E9C"/>
</svg>
